<svg xmlns="http://www.w3.org/2000/svg" xmlns:xlink="http://www.w3.org/1999/xlink" width="1920" zoomAndPan="magnify" viewBox="0 0 1440 809.999993" height="1080" preserveAspectRatio="xMidYMid meet" version="1.0"><defs><clipPath id="2b7be208c4"><path d="M 491.25 422 L 948.75 422 L 948.75 598 L 491.25 598 Z M 491.25 422 " clip-rule="nonzero"/></clipPath></defs><rect x="-144" width="1728" fill="#ffffff" y="-80.999999" height="971.999992" fill-opacity="1"/><path fill="#ed8264" d="M 857.375 320.257812 C 868.3125 359.40625 861.824219 399.316406 842.5625 431.695312 C 824.488281 462.097656 795.15625 485.855469 758.40625 496.140625 C 721.679688 506.417969 684.289062 501.34375 653.066406 484.703125 C 619.796875 467.042969 593.5625 436.296875 582.617188 397.121094 C 571.671875 357.945312 578.160156 318.039062 597.449219 285.683594 C 615.511719 255.257812 644.851562 231.523438 681.578125 221.246094 C 718.320312 210.972656 755.71875 216.0625 786.933594 232.675781 C 820.203125 250.355469 846.4375 281.113281 857.375 320.257812 Z M 857.375 320.257812 " fill-opacity="1" fill-rule="nonzero"/><path fill="#231f20" d="M 842.992188 430.890625 L 842.132812 432.511719 C 807.363281 414.050781 782.316406 383.085938 771.488281 345.246094 L 721.125 359.335938 L 759.292969 495.886719 L 757.527344 496.378906 L 719.371094 359.820312 L 669.003906 373.90625 C 679.355469 411.847656 673.992188 451.324219 653.863281 485.171875 L 652.292969 484.238281 C 672.164062 450.832031 677.457031 411.859375 667.238281 374.402344 L 582.875 397.996094 L 582.378906 396.234375 L 666.746094 372.636719 C 656.066406 335.308594 631.339844 304.734375 597.027344 286.488281 L 597.886719 284.871094 C 632.644531 303.355469 657.691406 334.328125 668.511719 372.144531 L 718.875 358.054688 L 680.71875 221.492188 L 682.480469 221 L 720.640625 357.5625 L 771.003906 343.472656 C 760.644531 305.496094 766.007812 266.015625 786.164062 232.199219 L 787.738281 233.132812 C 767.835938 266.519531 762.535156 305.484375 772.761719 342.980469 L 857.128906 319.382812 L 857.621094 321.148438 L 773.253906 344.742188 C 783.945312 382.097656 808.671875 412.671875 842.992188 430.890625 Z M 842.992188 430.890625 " fill-opacity="1" fill-rule="nonzero"/><g clip-path="url(#2b7be208c4)"><path fill="#c4eefd" d="M 948.4375 597.988281 L 491.5625 597.988281 L 491.5625 422.65625 C 504.609375 439.972656 525.335938 451.160156 548.671875 451.160156 C 572.007812 451.160156 592.734375 439.972656 605.78125 422.65625 C 618.828125 439.972656 639.554688 451.160156 662.890625 451.160156 C 686.226562 451.160156 706.953125 439.972656 720 422.65625 C 733.046875 439.972656 753.773438 451.160156 777.109375 451.160156 C 800.445312 451.160156 821.171875 439.972656 834.21875 422.65625 C 847.269531 439.972656 867.992188 451.160156 891.328125 451.160156 C 914.667969 451.160156 935.390625 439.972656 948.4375 422.65625 Z M 948.4375 597.988281 " fill-opacity="1" fill-rule="nonzero"/></g><path fill="#71bdd8" d="M 711.4375 569.648438 L 711.4375 516.320312 L 691.921875 516.320312 L 722.511719 463.328125 L 753.105469 516.320312 L 733.585938 516.320312 L 733.585938 569.648438 Z M 680.390625 557.175781 C 658.039062 557.175781 637.488281 546.917969 624.011719 529.035156 L 623.28125 528.066406 L 622.546875 529.035156 C 609.070312 546.917969 588.519531 557.175781 566.167969 557.175781 C 543.820312 557.175781 523.269531 546.917969 509.792969 529.035156 L 508.328125 530.144531 C 522.152344 548.492188 543.234375 559.015625 566.167969 559.015625 C 588.703125 559.015625 609.445312 548.859375 623.28125 531.09375 C 637.113281 548.847656 657.855469 559.015625 680.390625 559.015625 Z M 945.414062 477.902344 L 943.953125 476.796875 C 930.472656 494.679688 909.921875 504.9375 887.574219 504.9375 C 865.222656 504.9375 844.671875 494.679688 831.195312 476.796875 L 830.464844 475.828125 L 829.734375 476.796875 C 816.253906 494.679688 795.703125 504.9375 773.355469 504.9375 L 773.355469 506.765625 C 795.886719 506.765625 816.628906 496.609375 830.464844 478.84375 C 844.296875 496.597656 865.039062 506.765625 887.574219 506.765625 C 910.507812 506.765625 931.589844 496.242188 945.414062 477.902344 Z M 945.414062 477.902344 " fill-opacity="1" fill-rule="nonzero"/></svg>